<?xml version="1.0" encoding="UTF-8" standalone="no"?> <svg xmlns="http://www.w3.org/2000/svg" width="511.996" height="435.664" viewBox="0 0 511.996 435.664">
  <g id="Layer_x0020_1" transform="translate(-94.001 -132.168)">
    <path id="Path_39" data-name="Path 39" d="M463.458,242.066a54.949,54.949,0,1,1,54.95-54.95,55.011,55.011,0,0,1-54.95,54.95Z" fill-rule="evenodd"/>
    <path id="Path_40" data-name="Path 40" d="M274.977,277.824H102a8,8,0,0,1,0-16H274.977a8,8,0,1,1,0,16Z" fill-rule="evenodd"/>
    <path id="Path_41" data-name="Path 41" d="M257.127,361.882H102a8,8,0,0,1,0-16H257.127a8,8,0,0,1,0,16Z" fill-rule="evenodd"/>
    <path id="Path_42" data-name="Path 42" d="M312.044,445.934H102a8,8,0,0,1,0-16H312.044a8,8,0,0,1,0,16Z" fill-rule="evenodd"/>
    <path id="Path_43" data-name="Path 43" d="M373.822,194.229H102a8,8,0,0,1,0-16h271.82a8,8,0,1,1,0,16Z" fill-rule="evenodd"/>
    <path id="Path_44" data-name="Path 44" d="M257.127,529.528H102a8,8,0,0,1,0-16H257.127a8,8,0,1,1,0,16Z" fill-rule="evenodd"/>
    <path id="Path_45" data-name="Path 45" d="M348.089,567.831A28.681,28.681,0,0,1,327.8,518.86l12.638-12.638L373.584,473.5c13.6-60.614,58.943-157.638,18.749-157.638h-9.157l-13.238,49.387a24.931,24.931,0,1,1-48.163-12.9l15.051-55.276c2.691-15.741,16.108-25.807,22.595-30.67,6.263-4.7,33.417-8.805,55.095-11.42a8.1,8.1,0,0,1,.959-.059h124.1l18.317-46.111a24.931,24.931,0,0,1,46.337,18.413l-5.776,14.533-15.829,47.457c-.343,1.03-.651,2.134-.971,3.263-1.429,5.041-3.207,11.316-8.161,15.488-10.034,8.446-29.088,9.921-45.9,11.22-5.146.4-10.008.775-13.561,1.317a77.69,77.69,0,0,1-16.3.465l-12.7,62.433,49.83,14.374c23.662,3.808,32.9,16.8,36.47,27.076,4.925,14.146,1.5,30.508-1.42,37.7l.038.008L547.8,544.489a27.329,27.329,0,0,1-32.412,19.525A20.617,20.617,0,0,1,500,555.589a30.021,30.021,0,0,1-4.859-25.212l18.908-70.769-59.574,0-13.446,31.711a7.963,7.963,0,0,1-1.97,2.787L377.54,550.265l-9.167,9.183a28.579,28.579,0,0,1-20.284,8.383Z" fill-rule="evenodd"/>
  </g>
</svg>
